<svg width="19" height="17" viewBox="0 0 19 17" fill="none" xmlns="http://www.w3.org/2000/svg">
<path d="M10.0017 4.16829L9.07205 2.30906C8.8045 1.77396 8.67072 1.5064 8.47114 1.31093C8.29465 1.13807 8.08194 1.00661 7.8484 0.926052C7.5843 0.834961 7.28517 0.834961 6.68691 0.834961H3.50167C2.56825 0.834961 2.10154 0.834961 1.74502 1.01662C1.43141 1.17641 1.17645 1.43137 1.01666 1.74498C0.835001 2.1015 0.835001 2.56821 0.835001 3.50163V4.16829M0.835001 4.16829H13.5017C14.9018 4.16829 15.6019 4.16829 16.1366 4.44078C16.607 4.68046 16.9895 5.06291 17.2292 5.53332C17.5017 6.0681 17.5017 6.76816 17.5017 8.16829V11.835C17.5017 13.2351 17.5017 13.9352 17.2292 14.4699C16.9895 14.9403 16.607 15.3228 16.1366 15.5625C15.6019 15.835 14.9018 15.835 13.5017 15.835H4.835C3.43487 15.835 2.7348 15.835 2.20002 15.5625C1.72962 15.3228 1.34717 14.9403 1.10748 14.4699C0.835001 13.9352 0.835001 13.2351 0.835001 11.835V4.16829Z" stroke="#A4A7AE" stroke-width="1.67" stroke-linecap="round" stroke-linejoin="round"/>
</svg>
