<svg width="14" height="16" viewBox="0 0 14 16" fill="none" xmlns="http://www.w3.org/2000/svg">
<path d="M10.4167 13.25H10.275C9.08489 13.25 8.48983 13.25 8.03527 13.0184C7.63543 12.8147 7.31034 12.4896 7.10661 12.0897C6.875 11.6352 6.875 11.0401 6.875 9.85V5.31667C6.875 4.12656 6.875 3.5315 7.10661 3.07694C7.31034 2.67709 7.63543 2.35201 8.03527 2.14828C8.48983 1.91667 9.08489 1.91667 10.275 1.91667H10.4167M10.4167 13.25C10.4167 14.0324 11.0509 14.6667 11.8333 14.6667C12.6157 14.6667 13.25 14.0324 13.25 13.25C13.25 12.4676 12.6157 11.8333 11.8333 11.8333C11.0509 11.8333 10.4167 12.4676 10.4167 13.25ZM10.4167 1.91667C10.4167 2.69907 11.0509 3.33333 11.8333 3.33333C12.6157 3.33333 13.25 2.69907 13.25 1.91667C13.25 1.13426 12.6157 0.5 11.8333 0.5C11.0509 0.5 10.4167 1.13426 10.4167 1.91667ZM3.33333 7.58333L10.4167 7.58333M3.33333 7.58333C3.33333 8.36574 2.69907 9 1.91667 9C1.13426 9 0.5 8.36574 0.5 7.58333C0.5 6.80093 1.13426 6.16667 1.91667 6.16667C2.69907 6.16667 3.33333 6.80093 3.33333 7.58333ZM10.4167 7.58333C10.4167 8.36574 11.0509 9 11.8333 9C12.6157 9 13.25 8.36574 13.25 7.58333C13.25 6.80093 12.6157 6.16667 11.8333 6.16667C11.0509 6.16667 10.4167 6.80093 10.4167 7.58333Z" stroke="#414651" stroke-linecap="round" stroke-linejoin="round"/>
</svg>
