<svg width="16" height="16" viewBox="0 0 16 16" fill="none" xmlns="http://www.w3.org/2000/svg">
<g clip-path="url(#clip0_351_20909)">
<path d="M9.36648 4.00065C10.0176 4.12769 10.6161 4.44616 11.0852 4.91527C11.5543 5.38439 11.8728 5.98283 11.9998 6.63398M9.36648 1.33398C10.7193 1.48428 11.9809 2.0901 12.944 3.05199C13.9071 4.01388 14.5145 5.27466 14.6665 6.62732M6.8178 9.2427C6.01675 8.44164 5.38422 7.53588 4.92022 6.56947C4.88031 6.48634 4.86036 6.44478 4.84503 6.39219C4.79054 6.20528 4.82968 5.97578 4.94302 5.81749C4.97491 5.77295 5.01302 5.73485 5.08923 5.65864C5.3223 5.42557 5.43883 5.30903 5.51502 5.19185C5.80235 4.74992 5.80235 4.1802 5.51502 3.73827C5.43883 3.62109 5.3223 3.50455 5.08923 3.27148L4.95931 3.14157C4.60502 2.78727 4.42787 2.61013 4.23762 2.5139C3.85924 2.32252 3.4124 2.32252 3.03402 2.5139C2.84377 2.61013 2.66662 2.78727 2.31233 3.14157L2.20724 3.24666C1.85416 3.59974 1.67762 3.77628 1.54278 4.0163C1.39317 4.28264 1.2856 4.6963 1.2865 5.00178C1.28732 5.27708 1.34073 5.46523 1.44753 5.84153C2.02151 7.86379 3.10449 9.77203 4.69648 11.364C6.28847 12.956 8.19671 14.039 10.219 14.613C10.5953 14.7198 10.7834 14.7732 11.0587 14.774C11.3642 14.7749 11.7779 14.6673 12.0442 14.5177C12.2842 14.3829 12.4608 14.2063 12.8138 13.8533L12.9189 13.7482C13.2732 13.3939 13.4504 13.2167 13.5466 13.0265C13.738 12.6481 13.738 12.2013 13.5466 11.8229C13.4504 11.6326 13.2732 11.4555 12.9189 11.1012L12.789 10.9713C12.5559 10.7382 12.4394 10.6217 12.3222 10.5455C11.8803 10.2581 11.3106 10.2581 10.8687 10.5455C10.7515 10.6217 10.6349 10.7382 10.4019 10.9713C10.3257 11.0475 10.2875 11.0856 10.243 11.1175C10.0847 11.2308 9.85521 11.27 9.66831 11.2155C9.61572 11.2001 9.57415 11.1802 9.49103 11.1403C8.52461 10.6763 7.61885 10.0437 6.8178 9.2427Z" stroke="#A4A7AE" stroke-width="2" stroke-linecap="round" stroke-linejoin="round"/>
</g>
<defs>
<clipPath id="clip0_351_20909">
<rect width="16" height="16" fill="white"/>
</clipPath>
</defs>
</svg>
